<svg width="101" height="140" viewBox="0 0 101 140" fill="none" xmlns="http://www.w3.org/2000/svg">
<path d="M90.2087 99.7375H92.608L97.1969 110.499V99.7375H100.039V118.606H97.756L93.1438 107.331V118.606H90.2087V99.7375Z" fill="#FD5734"/>
<path d="M81.4545 118.862C79.4978 118.862 78.1002 118.342 77.2616 117.301C76.423 116.245 76.0037 114.708 76.0037 112.689V105.608C76.0037 103.604 76.423 102.09 77.2616 101.065C78.1002 100.04 79.4978 99.5278 81.4545 99.5278C83.3957 99.5278 84.7856 100.04 85.6242 101.065C86.4628 102.09 86.8821 103.604 86.8821 105.608V112.689C86.8821 114.692 86.455 116.222 85.6009 117.278C84.7623 118.334 83.3802 118.862 81.4545 118.862ZM81.4545 116.323C82.2155 116.323 82.728 116.082 82.992 115.601C83.256 115.119 83.388 114.42 83.388 113.504V104.816C83.388 103.899 83.256 103.208 82.992 102.742C82.7435 102.277 82.231 102.044 81.4545 102.044C80.6781 102.044 80.1578 102.284 79.8938 102.766C79.6298 103.232 79.4978 103.915 79.4978 104.816V113.504C79.4978 114.42 79.6298 115.119 79.8938 115.601C80.1578 116.082 80.6781 116.323 81.4545 116.323Z" fill="#FD5734"/>
<path d="M69.2083 99.7375H72.6092V118.606H69.2083V99.7375Z" fill="#FD5734"/>
<path d="M60.239 102.277H57.2341V99.7375H66.6216V102.277H63.6866V118.606H60.239V102.277Z" fill="#FD5734"/>
<path d="M51.2539 99.7375H54.6549V118.606H51.2539V99.7375Z" fill="#FD5734"/>
<path d="M42.2847 102.277H39.2798V99.7375H48.6673V102.277H45.7322V118.606H42.2847V102.277Z" fill="#FD5734"/>
<path d="M26.6549 99.7375H31.1973C33.185 99.7375 34.6681 100.118 35.6465 100.879C36.6248 101.624 37.114 102.913 37.114 104.746C37.114 105.941 36.9354 106.92 36.5782 107.681C36.2366 108.426 35.6387 108.97 34.7846 109.311L37.4168 118.606H33.9693L31.7098 109.964H30.0792V118.606H26.6549V99.7375ZM31.174 107.821C32.1523 107.821 32.8434 107.595 33.2472 107.145C33.6665 106.695 33.8761 105.957 33.8761 104.932C33.8761 103.938 33.6897 103.216 33.317 102.766C32.9599 102.315 32.3076 102.09 31.3603 102.09H30.0792V107.821H31.174Z" fill="#FD5734"/>
<path d="M17.9009 118.862C15.9442 118.862 14.5465 118.342 13.708 117.301C12.8694 116.245 12.4501 114.708 12.4501 112.689V105.608C12.4501 103.604 12.8694 102.09 13.708 101.065C14.5465 100.04 15.9442 99.5278 17.9009 99.5278C19.8421 99.5278 21.2319 100.04 22.0705 101.065C22.9091 102.09 23.3284 103.604 23.3284 105.608V112.689C23.3284 114.692 22.9013 116.222 22.0472 117.278C21.2086 118.334 19.8265 118.862 17.9009 118.862ZM17.9009 116.323C18.6618 116.323 19.1743 116.082 19.4383 115.601C19.7023 115.119 19.8343 114.42 19.8343 113.504V104.816C19.8343 103.899 19.7023 103.208 19.4383 102.742C19.1898 102.277 18.6774 102.044 17.9009 102.044C17.1244 102.044 16.6042 102.284 16.3402 102.766C16.0762 103.232 15.9442 103.915 15.9442 104.816V113.504C15.9442 114.42 16.0762 115.119 16.3402 115.601C16.6042 116.082 17.1244 116.323 17.9009 116.323Z" fill="#FD5734"/>
<path d="M5.21787 118.862C3.50964 118.862 2.22847 118.38 1.37435 117.418C0.535764 116.455 0.077647 115.018 0 113.108L2.95835 112.526C3.00494 113.722 3.19129 114.638 3.51741 115.275C3.85905 115.896 4.38705 116.206 5.1014 116.206C5.6294 116.206 6.01764 116.051 6.26611 115.74C6.53011 115.414 6.66211 114.98 6.66211 114.436C6.66211 113.691 6.49128 113.062 6.14964 112.549C5.82352 112.021 5.30328 111.447 4.58893 110.825L2.21294 108.752C1.48306 108.131 0.931763 107.463 0.559058 106.749C0.201882 106.035 0.0232941 105.18 0.0232941 104.187C0.0232941 102.711 0.450352 101.57 1.30447 100.762C2.17411 99.9393 3.36988 99.5278 4.89176 99.5278C6.52234 99.5278 7.68704 99.9937 8.38587 100.925C9.10022 101.842 9.51175 103.084 9.62045 104.652L6.66211 105.165C6.61552 104.14 6.46799 103.371 6.21952 102.859C5.98658 102.331 5.5207 102.067 4.82187 102.067C4.32493 102.067 3.9367 102.238 3.65717 102.579C3.37764 102.905 3.23788 103.325 3.23788 103.837C3.23788 104.443 3.35435 104.955 3.58729 105.375C3.83576 105.778 4.23176 106.213 4.77529 106.679L7.12799 108.752C8.01316 109.513 8.70422 110.328 9.20116 111.198C9.6981 112.068 9.94657 113.077 9.94657 114.226C9.94657 115.127 9.74469 115.927 9.34092 116.626C8.95269 117.324 8.4014 117.876 7.68705 118.28C6.97269 118.668 6.14964 118.862 5.21787 118.862Z" fill="#FD5734"/>
<path fill-rule="evenodd" clip-rule="evenodd" d="M39.794 67.5528C39.794 69.4826 41.3584 71.0469 43.2881 71.0469C45.2179 71.0469 46.7822 69.4826 46.7822 67.5528C46.7822 65.6231 45.2179 64.0587 43.2881 64.0587C41.3584 64.0587 39.794 65.6231 39.794 67.5528ZM43.2881 80.9469C41.3584 80.9469 39.794 79.3826 39.794 77.4528C39.794 75.5231 41.3584 73.9587 43.2881 73.9587C45.2179 73.9587 46.7822 75.5231 46.7822 77.4528C46.7822 79.3826 45.2179 80.9469 43.2881 80.9469ZM53.7704 80.9469C51.8407 80.9469 50.2763 79.3826 50.2763 77.4528C50.2763 75.5231 51.8407 73.9587 53.7704 73.9587C55.7002 73.9587 57.2645 75.5231 57.2645 77.4528C57.2645 79.3826 55.7002 80.9469 53.7704 80.9469ZM53.7704 71.0469C51.8407 71.0469 50.2763 69.4826 50.2763 67.5528C50.2763 65.6231 51.8407 64.0587 53.7704 64.0587C55.7002 64.0587 57.2645 65.6231 57.2645 67.5528C57.2645 69.4826 55.7002 71.0469 53.7704 71.0469Z" fill="#720046"/>
<path fill-rule="evenodd" clip-rule="evenodd" d="M48.5293 50.6646C48.5293 52.5943 50.0937 54.1587 52.0234 54.1587C53.9532 54.1587 55.5175 52.5943 55.5175 50.6646C55.5175 48.7348 53.9532 47.1705 52.0234 47.1705C50.0937 47.1705 48.5293 48.7348 48.5293 50.6646ZM36.2999 59.3999C36.2999 61.3296 37.8643 62.894 39.794 62.894C41.7238 62.894 43.2881 61.3296 43.2881 59.3999C43.2881 57.4701 41.7238 55.9057 39.794 55.9057C37.8643 55.9057 36.2999 57.4701 36.2999 59.3999ZM53.7704 59.3999C53.7704 61.3296 55.3348 62.894 57.2645 62.894C59.1943 62.894 60.7587 61.3296 60.7587 59.3999C60.7587 57.4701 59.1943 55.9057 57.2645 55.9057C55.3348 55.9057 53.7704 57.4701 53.7704 59.3999ZM48.5293 62.894C46.5996 62.894 45.0352 61.3296 45.0352 59.3999C45.0352 57.4701 46.5996 55.9057 48.5293 55.9057C50.4591 55.9057 52.0234 57.4701 52.0234 59.3999C52.0234 61.3296 50.4591 62.894 48.5293 62.894ZM43.2881 54.1587C41.3584 54.1587 39.794 52.5943 39.794 50.6646C39.794 48.7348 41.3584 47.1705 43.2881 47.1705C45.2179 47.1705 46.7822 48.7348 46.7822 50.6646C46.7822 52.5943 45.2179 54.1587 43.2881 54.1587Z" fill="#820043"/>
<path fill-rule="evenodd" clip-rule="evenodd" d="M45.0352 40.7646C45.0352 42.6944 46.5996 44.2587 48.5294 44.2587C50.4591 44.2587 52.0235 42.6944 52.0235 40.7646C52.0235 38.8349 50.4591 37.2705 48.5294 37.2705C46.5996 37.2705 45.0352 38.8349 45.0352 40.7646ZM36.2999 41.9293C36.2999 43.8591 37.8643 45.4234 39.794 45.4234C41.7238 45.4234 43.2881 43.8591 43.2881 41.9293C43.2881 39.9996 41.7238 38.4352 39.794 38.4352C37.8643 38.4352 36.2999 39.9996 36.2999 41.9293ZM57.2646 44.8411C55.3348 44.8411 53.7705 43.2767 53.7705 41.347C53.7705 39.4172 55.3348 37.8529 57.2646 37.8529C59.1943 37.8529 60.7587 39.4172 60.7587 41.347C60.7587 43.2767 59.1943 44.8411 57.2646 44.8411ZM57.2645 50.6646C57.2645 52.5943 58.8289 54.1587 60.7586 54.1587C62.6884 54.1587 64.2528 52.5943 64.2528 50.6646C64.2528 48.7349 62.6884 47.1705 60.7586 47.1705C58.8289 47.1705 57.2645 48.7349 57.2645 50.6646ZM34.5529 55.9058C32.6232 55.9058 31.0588 54.3414 31.0588 52.4117C31.0588 50.4819 32.6232 48.9175 34.5529 48.9175C36.4827 48.9175 38.047 50.4819 38.047 52.4117C38.047 54.3414 36.4827 55.9058 34.5529 55.9058Z" fill="#900D3F"/>
<path fill-rule="evenodd" clip-rule="evenodd" d="M50.2763 23.2941C50.2763 25.2238 51.8407 26.7882 53.7704 26.7882C55.7002 26.7882 57.2646 25.2238 57.2646 23.2941C57.2646 21.3644 55.7002 19.8 53.7704 19.8C51.8407 19.8 50.2763 21.3644 50.2763 23.2941ZM52.0234 35.5235C50.0937 35.5235 48.5293 33.9591 48.5293 32.0294C48.5293 30.0996 50.0937 28.5353 52.0234 28.5353C53.9532 28.5353 55.5176 30.0996 55.5176 32.0294C55.5176 33.9591 53.9532 35.5235 52.0234 35.5235ZM65.9999 46.0058C64.0701 46.0058 62.5058 44.4415 62.5058 42.5117C62.5058 40.582 64.0701 39.0176 65.9999 39.0176C67.9296 39.0176 69.494 40.582 69.494 42.5117C69.494 44.4415 67.9296 46.0058 65.9999 46.0058ZM43.2881 35.5235C41.3584 35.5235 39.794 33.9591 39.794 32.0294C39.794 30.0996 41.3584 28.5353 43.2881 28.5353C45.2179 28.5353 46.7822 30.0996 46.7822 32.0294C46.7822 33.9591 45.2179 35.5235 43.2881 35.5235ZM57.2645 32.6117C57.2645 34.5415 58.8289 36.1058 60.7587 36.1058C62.6884 36.1058 64.2528 34.5415 64.2528 32.6117C64.2528 30.682 62.6884 29.1176 60.7587 29.1176C58.8289 29.1176 57.2645 30.682 57.2645 32.6117ZM29.894 47.7529C27.9643 47.7529 26.3999 46.1885 26.3999 44.2588C26.3999 42.329 27.9643 40.7647 29.894 40.7647C31.8238 40.7647 33.3881 42.329 33.3881 44.2588C33.3881 46.1885 31.8238 47.7529 29.894 47.7529Z" fill="#C70039"/>
<path fill-rule="evenodd" clip-rule="evenodd" d="M55.5176 16.8882C53.5878 16.8882 52.0235 15.3238 52.0235 13.3941C52.0235 11.4643 53.5878 9.89996 55.5176 9.89996C57.4473 9.89996 59.0117 11.4643 59.0117 13.3941C59.0117 15.3238 57.4473 16.8882 55.5176 16.8882ZM67.7469 35.5234C67.7469 37.4532 69.3112 39.0176 71.241 39.0176C73.1707 39.0176 74.7351 37.4532 74.7351 35.5234C74.7351 33.5937 73.1707 32.0293 71.241 32.0293C69.3112 32.0293 67.7469 33.5937 67.7469 35.5234ZM19.4117 37.2705C19.4117 39.2002 20.9761 40.7646 22.9058 40.7646C24.8356 40.7646 26.3999 39.2002 26.3999 37.2705C26.3999 35.3408 24.8356 33.7764 22.9058 33.7764C20.9761 33.7764 19.4117 35.3408 19.4117 37.2705ZM38.047 22.1294C38.047 24.0591 39.6114 25.6235 41.5411 25.6235C43.4709 25.6235 45.0352 24.0591 45.0352 22.1294C45.0352 20.1996 43.4709 18.6352 41.5411 18.6352C39.6114 18.6352 38.047 20.1996 38.047 22.1294ZM64.2528 28.5352C62.323 28.5352 60.7587 26.9709 60.7587 25.0411C60.7587 23.1114 62.323 21.547 64.2528 21.547C66.1825 21.547 67.7469 23.1114 67.7469 25.0411C67.7469 26.9709 66.1825 28.5352 64.2528 28.5352Z" fill="#FF0025"/>
<path fill-rule="evenodd" clip-rule="evenodd" d="M57.2645 6.98822C55.3348 6.98822 53.7704 5.42386 53.7704 3.49411C53.7704 1.56437 55.3348 0 57.2645 0C59.1943 0 60.7587 1.56437 60.7587 3.49411C60.7587 5.42386 59.1943 6.98822 57.2645 6.98822ZM78.2293 32.0293C76.2996 32.0293 74.7352 30.465 74.7352 28.5352C74.7352 26.6055 76.2996 25.0411 78.2293 25.0411C80.159 25.0411 81.7234 26.6055 81.7234 28.5352C81.7234 30.465 80.159 32.0293 78.2293 32.0293ZM36.8822 12.2294C36.8822 14.1591 38.4466 15.7235 40.3763 15.7235C42.3061 15.7235 43.8705 14.1591 43.8705 12.2294C43.8705 10.2996 42.3061 8.73528 40.3763 8.73528C38.4466 8.73528 36.8822 10.2996 36.8822 12.2294ZM67.747 19.8C65.8172 19.8 64.2529 18.2356 64.2529 16.3059C64.2529 14.3761 65.8172 12.8117 67.747 12.8117C69.6767 12.8117 71.2411 14.3761 71.2411 16.3059C71.2411 18.2356 69.6767 19.8 67.747 19.8Z" fill="#FD5734"/>
<path d="M72.9735 139.441V129.483H76.8338V130.515H74.3627V133.81H76.3667V134.794H74.3627V138.445H76.8584V139.441H72.9735Z" fill="#FD5734"/>
<path d="M63.1842 139.441V129.483H65.6553C67.438 129.483 68.1141 130.503 68.1141 132.237C68.1141 133.823 67.2904 134.806 65.6676 134.806H64.5734V139.441H63.1842ZM64.5734 133.81H65.2127C66.4053 133.81 66.7987 133.478 66.7987 132.249C66.7987 130.835 66.6143 130.479 65.225 130.479H64.5734V133.81Z" fill="#FD5734"/>
<path d="M55.2194 139.552C53.1909 139.552 52.4901 138.298 52.4901 136.318V132.544C52.4901 130.577 53.2032 129.397 55.2194 129.397C57.2234 129.397 57.9364 130.589 57.9364 132.544V136.331C57.9364 138.285 57.2234 139.552 55.2194 139.552ZM55.2194 138.457C56.3259 138.457 56.5349 137.732 56.5349 136.626V132.261C56.5349 131.155 56.3259 130.479 55.2194 130.479C54.1007 130.479 53.8917 131.155 53.8917 132.261V136.626C53.8917 137.732 54.1007 138.457 55.2194 138.457Z" fill="#FD5734"/>
<path d="M42.4171 139.441V129.483H44.421C46.4126 129.483 47.347 130.233 47.347 132.126C47.347 133.294 47.0027 134.154 46.1176 134.45L47.5314 139.441H46.1913L44.8882 134.769H43.8063V139.441H42.4171ZM43.8063 133.773H44.3349C45.5029 133.773 46.0069 133.405 46.0069 132.126C46.0069 130.958 45.6873 130.479 44.421 130.479H43.8063V133.773Z" fill="#FD5734"/>
<path d="M34.4289 139.552C32.2528 139.552 31.7734 138.175 31.7734 136.085V129.483H33.1011V136.146C33.1011 137.437 33.261 138.457 34.4289 138.457C35.5968 138.457 35.7567 137.437 35.7567 136.146V129.483H37.0721V136.085C37.0721 138.175 36.5927 139.552 34.4289 139.552Z" fill="#FD5734"/>
<path d="M22.9705 139.441V129.483H26.8309V130.515H24.3598V133.81H26.3637V134.794H24.3598V138.445H26.8555V139.441H22.9705Z" fill="#FD5734"/>
</svg>
